# xmcd CD database file
#
# Track frame offsets:
#	150
#	29350
#	66282
#	110734
#	141117
#	168902
#	193681
#
# Disc length: 2914 seconds
#
# Revision: 0
# Processed by: cddbd v1.5.2PL0 Copyright (c) Steve Scherf et al.
# Submitted via: CDex 1.70beta2
#
DISCID=620b6007
DTITLE=David Lanz - Cristofori's Dream
DYEAR=1994
DGENRE=New Age
TTITLE0=Cristofori's Dream
TTITLE1=Spiral Dance
TTITLE2=Green Into Gold
TTITLE3=Wings to Alter
TTITLE4=Summer's Child
TTITLE5=Free Fall
TTITLE6=A Whiter Shade of Pale
EXTD=YEAR: 1994
EXTT0=
EXTT1=
EXTT2=
EXTT3=
EXTT4=
EXTT5=
EXTT6=
PLAYORDER=
